<svg width="21" height="21" viewBox="0 0 21 21" fill="none" xmlns="http://www.w3.org/2000/svg">
<mask id="mask0" mask-type="alpha" maskUnits="userSpaceOnUse" x="0" y="0" width="21" height="21">
<path fill-rule="evenodd" clip-rule="evenodd" d="M0 0.000198364H20.0027V20.0012H0V0.000198364Z" fill="white"/>
</mask>
<g mask="url(#mask0)">
<path fill-rule="evenodd" clip-rule="evenodd" d="M8.94472 18.0755C9.53472 18.6515 10.4847 18.6445 11.0707 18.0555L11.7927 17.3355C12.3527 16.7765 13.1267 16.4575 13.9157 16.4575H14.9457C15.7797 16.4575 16.4577 15.7795 16.4577 14.9465V13.9175C16.4577 13.1165 16.7677 12.3635 17.3337 11.7965L18.0537 11.0755C18.3467 10.7815 18.5037 10.4005 18.5027 9.9965C18.5017 9.5935 18.3427 9.2145 18.0557 8.9285L17.3347 8.2065C16.7677 7.6355 16.4577 6.8835 16.4577 6.0825V5.0555C16.4577 4.2215 15.7797 3.5435 14.9457 3.5435H13.9177C13.1167 3.5435 12.3637 3.2325 11.7967 2.6695L11.0747 1.9465C10.4737 1.3515 9.51472 1.3545 8.92772 1.9455L8.20872 2.6665C7.63472 3.2335 6.88172 3.5435 6.08372 3.5435H5.05472C4.22172 3.5445 3.54372 4.2225 3.54372 5.0555V6.0805C3.54372 6.8815 3.23272 7.6345 2.66872 8.2025L1.95872 8.9135C1.95172 8.9215 1.94472 8.9275 1.93772 8.9345C1.35072 9.5255 1.35372 10.4845 1.94472 11.0715L2.66672 11.7935C3.23272 12.3615 3.54372 13.1145 3.54372 13.9155V14.9465C3.54372 15.7795 4.22072 16.4575 5.05472 16.4575H6.08172C6.88372 16.4585 7.63672 16.7695 8.20372 17.3345L8.92472 18.0535C8.93072 18.0605 8.93772 18.0675 8.94472 18.0755ZM9.99872 20.0015C9.23172 20.0015 8.46472 19.7115 7.87772 19.1295C7.86972 19.1215 7.86172 19.1135 7.85372 19.1045L7.14372 18.3955C6.86072 18.1145 6.48272 17.9585 6.08072 17.9575H5.05472C3.39372 17.9575 2.04372 16.6065 2.04372 14.9465V13.9155C2.04372 13.5135 1.88672 13.1365 1.60472 12.8525L0.885722 12.1345C-0.282278 10.9725 -0.296278 9.08049 0.850722 7.9005C0.859722 7.8915 0.868722 7.8825 0.877722 7.8735L1.60572 7.1435C1.88672 6.8605 2.04372 6.4815 2.04372 6.0805V5.0555C2.04372 3.3955 3.39372 2.0445 5.05372 2.0435H6.08372C6.48472 2.0435 6.86272 1.8865 7.14972 1.6035L7.86472 0.886497C9.03372 -0.290503 10.9447 -0.296503 12.1237 0.875497L12.8547 1.6065C13.1377 1.8875 13.5157 2.0435 13.9177 2.0435H14.9457C16.6067 2.0435 17.9577 3.3945 17.9577 5.0555V6.0825C17.9577 6.4835 18.1137 6.8625 18.3967 7.1475L19.1147 7.8665C19.6837 8.4315 19.9997 9.1865 20.0027 9.9915C20.0057 10.7965 19.6947 11.5535 19.1277 12.1245L18.3947 12.8555C18.1137 13.1385 17.9577 13.5155 17.9577 13.9175V14.9465C17.9577 16.6065 16.6067 17.9575 14.9467 17.9575H13.9157C13.5197 17.9575 13.1327 18.1175 12.8517 18.3965L12.1337 19.1145C11.5467 19.7055 10.7727 20.0015 9.99872 20.0015Z" fill="#A6ABAF"/>
</g>
<path fill-rule="evenodd" clip-rule="evenodd" d="M7.43041 13.3215C7.23841 13.3215 7.04641 13.2485 6.90041 13.1015C6.60741 12.8085 6.60741 12.3345 6.90041 12.0415L12.0404 6.9005C12.3334 6.6075 12.8084 6.6075 13.1014 6.9005C13.3944 7.1935 13.3944 7.6685 13.1014 7.9615L7.96041 13.1015C7.81441 13.2485 7.62241 13.3215 7.43041 13.3215Z" fill="#A6ABAF"/>
<path fill-rule="evenodd" clip-rule="evenodd" d="M12.503 13.4992C11.95 13.4992 11.498 13.0522 11.498 12.4992C11.498 11.9462 11.941 11.4992 12.494 11.4992H12.503C13.056 11.4992 13.503 11.9462 13.503 12.4992C13.503 13.0522 13.056 13.4992 12.503 13.4992Z" fill="#A6ABAF"/>
<path fill-rule="evenodd" clip-rule="evenodd" d="M7.50305 8.49921C6.95005 8.49921 6.49805 8.05221 6.49805 7.49921C6.49805 6.94621 6.94105 6.49921 7.49405 6.49921H7.50305C8.05605 6.49921 8.50305 6.94621 8.50305 7.49921C8.50305 8.05221 8.05605 8.49921 7.50305 8.49921Z" fill="#A6ABAF"/>
</svg>
