<svg width="20" height="19" viewBox="0 0 20 19" fill="none" xmlns="http://www.w3.org/2000/svg">
<mask id="mask0" mask-type="alpha" maskUnits="userSpaceOnUse" x="0" y="0" width="20" height="19">
<path fill-rule="evenodd" clip-rule="evenodd" d="M0 0.000495911H20V18.1665H0V0.000495911Z" fill="white"/>
</mask>
<g mask="url(#mask0)">
<path fill-rule="evenodd" clip-rule="evenodd" d="M1.5 11.9795V14.0245C1.5 14.7305 1.774 15.3935 2.273 15.8925C2.772 16.3915 3.436 16.6665 4.141 16.6665H15.857C17.313 16.6665 18.499 15.4825 18.5 14.0265V11.9785C17.214 11.6455 16.261 10.4745 16.26 9.08549C16.26 7.69649 17.213 6.52549 18.499 6.19149L18.5 4.14649C18.501 2.6885 17.318 1.5015 15.861 1.5005H4.144C2.687 1.5005 1.501 2.6855 1.5 4.1425V6.25949C1.986 6.37549 2.437 6.6145 2.812 6.9645C3.381 7.49549 3.709 8.2155 3.737 8.99349C3.74 10.4595 2.787 11.6435 1.5 11.9795ZM15.857 18.1665H4.142C3.035 18.1665 1.995 17.7365 1.212 16.9535C0.43 16.1705 0 15.1305 0 14.0245V11.3245C0 10.9105 0.336 10.5745 0.75 10.5745C1.574 10.5735 2.24 9.9055 2.239 9.0855C2.225 8.6675 2.065 8.3195 1.789 8.0615C1.514 7.8035 1.158 7.6625 0.776 7.6835C0.569 7.6855 0.375 7.6145 0.229 7.4735C0.083 7.3325 0 7.1365 0 6.9335V4.1435C0.001 1.8585 1.86 0.000495911 4.144 0.000495911H15.856C18.146 0.00149591 20.002 1.8635 20 4.1475V6.8465C20 7.2605 19.664 7.5965 19.25 7.5965C18.429 7.5965 17.76 8.2645 17.76 9.0845C17.761 9.9065 18.429 10.5745 19.25 10.5745C19.664 10.5745 20 10.9105 20 11.3245V14.0245C19.999 16.3085 18.14 18.1665 15.857 18.1665Z" fill="#A6ABAF"/>
</g>
<path fill-rule="evenodd" clip-rule="evenodd" d="M8.10382 8.3815L8.61282 8.8775C8.88882 9.1485 9.01382 9.5345 8.94782 9.9115L8.82782 10.6095L9.45682 10.2785C9.79582 10.0975 10.2028 10.0985 10.5448 10.2805L11.1698 10.6085L11.0498 9.9095C10.9868 9.5265 11.1128 9.1435 11.3858 8.8775L11.8948 8.3815L11.1898 8.2795C10.8118 8.2245 10.4838 7.9865 10.3148 7.6415L9.99982 7.0045L9.68482 7.6425C9.51582 7.9865 9.18782 8.2245 8.80782 8.2795L8.10382 8.3815ZM11.6178 12.3875C11.4318 12.3875 11.2458 12.3425 11.0738 12.2515L9.99983 11.6885L8.92483 12.2525C8.52883 12.4595 8.05783 12.4265 7.69783 12.1645C7.33683 11.9015 7.15983 11.4655 7.23483 11.0255L7.43983 9.82949L6.57083 8.98249C6.25183 8.67149 6.13783 8.2145 6.27483 7.7905C6.41283 7.3655 6.77283 7.0605 7.21383 6.9965L8.41783 6.8205L8.95483 5.7315C9.15183 5.3315 9.55183 5.0825 9.99983 5.0825C10.4458 5.0825 10.8468 5.3315 11.0438 5.7325L11.5818 6.8205L12.7838 6.9965C13.2258 7.0605 13.5868 7.3655 13.7238 7.7905C13.8608 8.2145 13.7478 8.67149 13.4278 8.98349L12.5578 9.83049L12.7638 11.0255C12.8388 11.4665 12.6608 11.9035 12.2988 12.1655C12.0948 12.3125 11.8568 12.3875 11.6178 12.3875Z" fill="#A6ABAF"/>
</svg>
