<svg width="46" height="35" viewBox="0 0 46 35" fill="none" xmlns="http://www.w3.org/2000/svg">
<path fill-rule="evenodd" clip-rule="evenodd" d="M33.207 26.9287C31.8599 27.0061 30.5144 26.9999 29.1673 26.9999C29.158 26.9999 22.3412 26.9999 22.3412 26.9999C20.9678 26.9999 19.6222 27.0061 18.2759 26.9287C17.0519 26.859 15.8597 26.7103 14.6728 26.3782C12.1745 25.6799 9.99281 24.2213 8.41578 22.1534C6.84804 20.0987 5.99953 17.5834 5.99953 15.0007C5.99953 12.4148 6.84804 9.90104 8.41578 7.84633C9.99281 5.77923 12.1745 4.31988 14.6728 3.62156C15.8597 3.28943 17.0519 3.14156 18.2759 3.07111C19.6222 2.99369 20.9678 3.00065 22.3149 3.00065C22.3242 3.00065 29.1425 2.99988 29.1425 2.99988C30.5144 3.00065 31.8599 2.99369 33.207 3.07111C34.4302 3.14156 35.6225 3.28943 36.8093 3.62156C39.3077 4.31988 41.4893 5.77924 43.0664 7.84633C44.6341 9.90104 45.4834 12.4149 45.4834 14.9999C45.4834 17.5834 44.6341 20.0987 43.0664 22.1534C41.4893 24.2213 39.3077 25.6799 36.8093 26.3782C35.6225 26.7103 34.4302 26.859 33.207 26.9287Z" fill="#A6ABAF"/>
<g filter="url(#filter0_dd)">
<path fill-rule="evenodd" clip-rule="evenodd" d="M17.8836 4.60004C11.9189 4.60004 7.08359 9.43537 7.08359 15.4C7.08359 21.3647 11.9189 26.2 17.8836 26.2C23.8483 26.2 28.6836 21.3647 28.6836 15.4C28.6836 9.43537 23.8483 4.60004 17.8836 4.60004Z" fill="white"/>
</g>
<defs>
<filter id="filter0_dd" x="0.683984" y="0.600036" width="34.4" height="34.4" filterUnits="userSpaceOnUse" color-interpolation-filters="sRGB">
<feFlood flood-opacity="0" result="BackgroundImageFix"/>
<feColorMatrix in="SourceAlpha" type="matrix" values="0 0 0 0 0 0 0 0 0 0 0 0 0 0 0 0 0 0 127 0"/>
<feOffset dy="2.4"/>
<feGaussianBlur stdDeviation="0.4"/>
<feColorMatrix type="matrix" values="0 0 0 0 0 0 0 0 0 0 0 0 0 0 0 0 0 0 0.06 0"/>
<feBlend mode="normal" in2="BackgroundImageFix" result="effect1_dropShadow"/>
<feColorMatrix in="SourceAlpha" type="matrix" values="0 0 0 0 0 0 0 0 0 0 0 0 0 0 0 0 0 0 127 0"/>
<feOffset dy="2.4"/>
<feGaussianBlur stdDeviation="3.2"/>
<feColorMatrix type="matrix" values="0 0 0 0 0 0 0 0 0 0 0 0 0 0 0 0 0 0 0.15 0"/>
<feBlend mode="normal" in2="effect1_dropShadow" result="effect2_dropShadow"/>
<feBlend mode="normal" in="SourceGraphic" in2="effect2_dropShadow" result="shape"/>
</filter>
</defs>
</svg>
