<svg width="20" height="20" viewBox="0 0 20 20" fill="none" xmlns="http://www.w3.org/2000/svg">
<path fill-rule="evenodd" clip-rule="evenodd" d="M9.99609 14.5222C9.65109 14.5222 9.37109 14.2422 9.37109 13.8972V11.7831C9.37109 11.4381 9.65109 11.1581 9.99609 11.1581C10.3411 11.1581 10.6211 11.4381 10.6211 11.7831V13.8972C10.6211 14.2422 10.3411 14.5222 9.99609 14.5222Z" fill="#A6ABAF"/>
<mask id="mask0" mask-type="alpha" maskUnits="userSpaceOnUse" x="1" y="3" width="18" height="10">
<path fill-rule="evenodd" clip-rule="evenodd" d="M1.66699 3.81665H18.3252V12.4091H1.66699V3.81665Z" fill="white"/>
</mask>
<g mask="url(#mask0)">
<path fill-rule="evenodd" clip-rule="evenodd" d="M2.91699 9.49415C4.89699 10.57 7.39366 11.1591 9.99199 11.1591C12.5953 11.1591 15.0945 10.57 17.0753 9.49415V6.99248C17.0753 5.92998 16.2162 5.06665 15.1587 5.06665H4.84199C3.78033 5.06665 2.91699 5.92665 2.91699 6.98415V9.49415ZM9.99199 12.4091C7.03783 12.4091 4.19033 11.6941 1.97616 10.3975C1.78449 10.2858 1.66699 10.0808 1.66699 9.85832V6.98415C1.66699 5.23748 3.09116 3.81665 4.84199 3.81665H15.1587C16.9053 3.81665 18.3253 5.24082 18.3253 6.99248V9.85832C18.3253 10.0808 18.207 10.2858 18.0162 10.3975C15.802 11.6941 12.952 12.4091 9.99199 12.4091Z" fill="#A6ABAF"/>
</g>
<mask id="mask1" mask-type="alpha" maskUnits="userSpaceOnUse" x="6" y="1" width="8" height="5">
<path fill-rule="evenodd" clip-rule="evenodd" d="M6.4541 1.66682H13.5374V5.06341H6.4541V1.66682Z" fill="white"/>
</mask>
<g mask="url(#mask1)">
<path fill-rule="evenodd" clip-rule="evenodd" d="M12.9124 5.06342C12.5674 5.06342 12.2874 4.78342 12.2874 4.43842V4.13342C12.2874 3.46258 11.7416 2.91675 11.0708 2.91675H8.92077C8.24993 2.91675 7.7041 3.46258 7.7041 4.13342V4.43842C7.7041 4.78342 7.4241 5.06342 7.0791 5.06342C6.7341 5.06342 6.4541 4.78342 6.4541 4.43842V4.13342C6.4541 2.77341 7.56077 1.66675 8.92077 1.66675H11.0708C12.4308 1.66675 13.5374 2.77341 13.5374 4.13342V4.43842C13.5374 4.78342 13.2574 5.06342 12.9124 5.06342Z" fill="#A6ABAF"/>
</g>
<path fill-rule="evenodd" clip-rule="evenodd" d="M14.8291 18.1168H5.16247C3.4333 18.1168 1.97747 16.766 1.84664 15.041L1.6883 12.9502C1.66247 12.606 1.9208 12.3052 2.26497 12.2793C2.6108 12.2668 2.90914 12.511 2.9358 12.856L3.0933 14.946C3.17497 16.0227 4.0833 16.8668 5.16247 16.8668H14.8291C15.9083 16.8668 16.8175 16.0227 16.8983 14.946L17.0566 12.856C17.0833 12.511 17.3891 12.266 17.7275 12.2793C18.0716 12.3052 18.3291 12.606 18.3033 12.9502L18.145 15.041C18.0141 16.766 16.5583 18.1168 14.8291 18.1168Z" fill="#A6ABAF"/>
</svg>
