<svg width="16" height="14" viewBox="0 0 16 14" fill="none" xmlns="http://www.w3.org/2000/svg">
<path fill-rule="evenodd" clip-rule="evenodd" d="M0.000122027 1.00001C0.000122051 0.448015 0.643183 1.45875e-05 1.43553 1.46222e-05L14.5647 1.5196e-05C15.3571 1.52307e-05 16.0001 0.448015 16.0001 1.00002C16.0001 1.55202 15.3571 2.00002 14.5647 2.00002L1.43553 2.00002C0.643183 2.00002 0.000122002 1.55202 0.000122027 1.00001Z" fill="white"/>
<path fill-rule="evenodd" clip-rule="evenodd" d="M0.000122027 13C0.000122051 12.448 0.643183 12 1.43553 12L14.5647 12C15.3571 12 16.0001 12.448 16.0001 13C16.0001 13.552 15.3571 14 14.5647 14L1.43553 14C0.643183 14 0.000122002 13.552 0.000122027 13Z" fill="white"/>
<path fill-rule="evenodd" clip-rule="evenodd" d="M0.00153823 7.24358C0.00153826 6.69 0.450828 6.24071 1.00441 6.24071L14.5673 6.24071C15.1209 6.24071 15.5702 6.69 15.5702 7.24358C15.5702 7.79717 15.1209 8.24646 14.5673 8.24646L1.00441 8.24646C0.450828 8.24646 0.00153821 7.79717 0.00153823 7.24358Z" fill="white"/>
</svg>
