<svg width="16" height="16" viewBox="0 0 16 16" fill="none" xmlns="http://www.w3.org/2000/svg">
<path fill-rule="evenodd" clip-rule="evenodd" d="M6.40169 10.0911C6.27369 10.0911 6.14569 10.0425 6.04836 9.94446C5.85302 9.74912 5.85302 9.43312 6.04836 9.23779L9.24302 6.04312C9.43836 5.84779 9.75436 5.84779 9.94969 6.04312C10.145 6.23846 10.145 6.55446 9.94969 6.74979L6.75502 9.94446C6.65769 10.0425 6.52969 10.0911 6.40169 10.0911Z" fill="white"/>
<path fill-rule="evenodd" clip-rule="evenodd" d="M9.5978 10.093C9.4698 10.093 9.3418 10.0444 9.24447 9.94636L6.04713 6.74835C5.8518 6.55302 5.8518 6.23702 6.04713 6.04169C6.24313 5.84635 6.55913 5.84635 6.7538 6.04169L9.95113 9.23969C10.1465 9.43502 10.1465 9.75102 9.95113 9.94636C9.8538 10.0444 9.72513 10.093 9.5978 10.093Z" fill="white"/>
<path fill-rule="evenodd" clip-rule="evenodd" d="M5.10992 2.33333C3.42325 2.33333 2.33325 3.48866 2.33325 5.27733V10.7227C2.33325 12.5113 3.42325 13.6667 5.10992 13.6667H10.8886C12.5759 13.6667 13.6666 12.5113 13.6666 10.7227V5.27733C13.6666 3.48866 12.5759 2.33333 10.8893 2.33333H5.10992ZM10.8886 14.6667H5.10992C2.85059 14.6667 1.33325 13.0813 1.33325 10.7227V5.27733C1.33325 2.91866 2.85059 1.33333 5.10992 1.33333H10.8893C13.1486 1.33333 14.6666 2.91866 14.6666 5.27733V10.7227C14.6666 13.0813 13.1486 14.6667 10.8886 14.6667Z" fill="white"/>
</svg>
