<svg width="34" height="28" viewBox="0 0 34 28" fill="none" xmlns="http://www.w3.org/2000/svg">
<path d="M30.9316 0.875H2.81836C1.25977 0.875 0 2.13477 0 3.6875V24.3125C0 25.8652 1.25977 27.125 2.81836 27.125H30.9316C32.4902 27.125 33.75 25.8652 33.75 24.3125V3.6875C33.75 2.13477 32.4902 0.875 30.9316 0.875ZM3.16992 3.6875H30.5801C30.7734 3.6875 30.9316 3.8457 30.9316 4.03906V6.5H2.81836V4.03906C2.81836 3.8457 2.97656 3.6875 3.16992 3.6875ZM30.5801 24.3125H3.16992C2.97656 24.3125 2.81836 24.1543 2.81836 23.9609V14H30.9316V23.9609C30.9316 24.1543 30.7734 24.3125 30.5801 24.3125ZM11.25 18.4531V20.7969C11.25 21.1836 10.9336 21.5 10.5469 21.5H6.32812C5.94141 21.5 5.625 21.1836 5.625 20.7969V18.4531C5.625 18.0664 5.94141 17.75 6.32812 17.75H10.5469C10.9336 17.75 11.25 18.0664 11.25 18.4531ZM22.5 18.4531V20.7969C22.5 21.1836 22.1836 21.5 21.7969 21.5H13.8281C13.4414 21.5 13.125 21.1836 13.125 20.7969V18.4531C13.125 18.0664 13.4414 17.75 13.8281 17.75H21.7969C22.1836 17.75 22.5 18.0664 22.5 18.4531Z" fill="white"/>
</svg>
