<svg width="14" height="14" viewBox="0 0 14 14" fill="none" xmlns="http://www.w3.org/2000/svg">
<path fill-rule="evenodd" clip-rule="evenodd" d="M4.10992 1.33333C2.42325 1.33333 1.33325 2.48866 1.33325 4.27733V9.72266C1.33325 11.5113 2.42325 12.6667 4.10992 12.6667H9.88859C11.5759 12.6667 12.6666 11.5113 12.6666 9.72266V4.27733C12.6666 2.48866 11.5759 1.33333 9.88925 1.33333H4.10992ZM9.88859 13.6667H4.10992C1.85059 13.6667 0.333252 12.0813 0.333252 9.72266V4.27733C0.333252 1.91866 1.85059 0.333328 4.10992 0.333328H9.88925C12.1486 0.333328 13.6666 1.91866 13.6666 4.27733V9.72266C13.6666 12.0813 12.1486 13.6667 9.88859 13.6667Z" fill="white"/>
</svg>
