<svg width="52" height="38" viewBox="0 0 52 38" fill="none" xmlns="http://www.w3.org/2000/svg">
<path d="M10.506 21.9973C12.8653 18.0247 16.7425 14.6453 22.825 13.7713V33.8127C22.825 35.5663 24.2466 36.9877 26 36.9877C27.7534 36.9877 29.175 35.5663 29.175 33.8127V13.8304C34.238 14.7418 38.1136 17.7942 40.727 21.5862C43.3508 25.3935 44.7 29.9436 44.7 33.8125C44.7 35.5661 46.1216 36.9875 47.875 36.9875C49.6284 36.9875 51.05 35.5661 51.05 33.8125C51.05 21.6656 42.4006 9.13548 29.175 7.40704V4.125C29.175 2.37141 27.7534 0.95 26 0.95C24.2466 0.95 22.825 2.37141 22.825 4.125V7.37131C9.03433 8.86823 0.95 20.7023 0.95 33.8125C0.95 35.5661 2.37161 36.9875 4.125 36.9875C5.87839 36.9875 7.3 35.5661 7.3 33.8125C7.3 30.5676 8.1384 25.9839 10.506 21.9973Z" fill="white" stroke="#EFF8FF" stroke-width="0.1"/>
</svg>
