<svg width="14" height="13" viewBox="0 0 14 13" fill="none" xmlns="http://www.w3.org/2000/svg">
<path fill-rule="evenodd" clip-rule="evenodd" d="M6.20323 7.87853L8.64123 11.8339C8.74789 12.0072 8.91456 12.0052 8.98189 11.9959C9.04923 11.9865 9.21123 11.9452 9.26989 11.7485L12.3186 1.45187C12.3719 1.26987 12.2739 1.14587 12.2299 1.10187C12.1872 1.05787 12.0652 0.963867 11.8886 1.01387L1.58456 4.0312C1.38923 4.08853 1.34656 4.25253 1.33723 4.31987C1.32789 4.38853 1.32523 4.55853 1.49789 4.6672L5.49856 7.1692L9.03323 3.5972C9.22723 3.4012 9.54389 3.3992 9.74056 3.5932C9.93723 3.7872 9.93856 4.10453 9.74456 4.30053L6.20323 7.87853ZM8.92988 12.9999C8.46588 12.9999 8.04055 12.7639 7.78988 12.3585L5.20522 8.16454L0.967882 5.51454C0.511215 5.22854 0.272549 4.71921 0.346549 4.18388C0.419882 3.64854 0.787215 3.22321 1.30322 3.07188L11.6072 0.0545424C12.0812 -0.0841243 12.5892 0.047209 12.9385 0.395209C13.2879 0.746542 13.4179 1.25988 13.2765 1.73588L10.2279 12.0319C10.0752 12.5499 9.64855 12.9159 9.11455 12.9872C9.05188 12.9952 8.99122 12.9999 8.92988 12.9999Z" fill="white"/>
</svg>
