<svg width="27" height="17" viewBox="0 0 27 17" fill="none" xmlns="http://www.w3.org/2000/svg">
<path d="M11.5192 8.29712C11.8756 7.69712 12.4559 7.18631 13.3625 7.0414V10.1188C13.3625 10.4156 13.6032 10.6563 13.9 10.6563C14.1968 10.6563 14.4375 10.4156 14.4375 10.1188V7.05251C15.1898 7.20299 15.7686 7.66361 16.1627 8.2354C16.5673 8.82257 16.775 9.52408 16.775 10.1187C16.775 10.4156 17.0157 10.6562 17.3125 10.6562C17.6093 10.6562 17.85 10.4156 17.85 10.1187C17.85 8.21816 16.5049 6.25377 14.4375 5.96264V5.4875C14.4375 5.19063 14.1968 4.95 13.9 4.95C13.6032 4.95 13.3625 5.19063 13.3625 5.4875V5.95623C11.2079 6.20993 9.95 8.06918 9.95 10.1187C9.95 10.4156 10.1907 10.6562 10.4875 10.6562C10.7843 10.6562 11.025 10.4156 11.025 10.1187C11.025 9.61854 11.1545 8.91127 11.5192 8.29712Z" fill="#A6ABAF" stroke="#A6ABAF" stroke-width="0.1"/>
<path d="M25.1072 0H1.86579C0.83701 0 0 0.837011 0 1.86579V14.4542C0 15.483 0.83701 16.32 1.86579 16.32H25.1073C26.1361 16.32 26.9731 15.483 26.9731 14.4542V1.86579C26.9731 0.837011 26.1361 0 25.1072 0ZM25.8126 14.4543C25.8126 14.8431 25.4962 15.1596 25.1073 15.1596H1.86579C1.47691 15.1596 1.1605 14.8431 1.1605 14.4543V1.86579C1.1605 1.47691 1.47691 1.1605 1.86579 1.1605H25.1073C25.4962 1.1605 25.8126 1.47691 25.8126 1.86579V14.4543Z" fill="#A6ABAF"/>
</svg>
