<svg width="38" height="37" viewBox="0 0 38 37" fill="none" xmlns="http://www.w3.org/2000/svg">
<path d="M17.5734 2.00861C18.0224 0.626645 19.9776 0.626645 20.4266 2.00861L23.4638 11.3561C23.7985 12.3862 24.7584 13.0836 25.8414 13.0836H35.67C37.1231 13.0836 37.7272 14.943 36.5517 15.7971L28.6002 21.5742C27.724 22.2108 27.3573 23.3392 27.692 24.3693L30.7292 33.7168C31.1782 35.0988 29.5965 36.248 28.4209 35.3939L20.4695 29.6168C19.5932 28.9802 18.4068 28.9802 17.5305 29.6168L9.57906 35.3939C8.40349 36.248 6.82177 35.0988 7.27079 33.7168L10.308 24.3693C10.6427 23.3392 10.276 22.2108 9.39981 21.5742L1.44834 15.7971C0.272764 14.943 0.876927 13.0836 2.33001 13.0836H12.1586C13.2416 13.0836 14.2015 12.3862 14.5362 11.3561L17.5734 2.00861Z" stroke="#0091FF"/>
</svg>
