<svg width="18" height="18" viewBox="0 0 18 18" fill="none" xmlns="http://www.w3.org/2000/svg">
<path fill-rule="evenodd" clip-rule="evenodd" d="M5.38758 1.91666C3.27925 1.91666 1.91675 3.36082 1.91675 5.59666V12.4033C1.91675 14.6392 3.27925 16.0833 5.38758 16.0833H12.6109C14.7201 16.0833 16.0834 14.6392 16.0834 12.4033V5.59666C16.0834 3.36082 14.7209 1.91666 12.6117 1.91666H5.38758ZM12.6109 17.3333H5.38758C2.56341 17.3333 0.666748 15.3517 0.666748 12.4033V5.59666C0.666748 2.64832 2.56341 0.666656 5.38758 0.666656H12.6117C15.4359 0.666656 17.3334 2.64832 17.3334 5.59666V12.4033C17.3334 15.3517 15.4359 17.3333 12.6109 17.3333Z" fill="#A6ABAF"/>
<path fill-rule="evenodd" clip-rule="evenodd" d="M11.8251 11.3063C11.7159 11.3063 11.6059 11.278 11.5051 11.2188L8.67927 9.53299C8.49093 9.41966 8.37427 9.21549 8.37427 8.99633V5.36133C8.37427 5.01633 8.65427 4.73633 8.99927 4.73633C9.34427 4.73633 9.62427 5.01633 9.62427 5.36133V8.64133L12.1459 10.1438C12.4418 10.3213 12.5393 10.7047 12.3626 11.0013C12.2451 11.1972 12.0376 11.3063 11.8251 11.3063Z" fill="#A6ABAF"/>
</svg>
