<svg width="20" height="20" viewBox="0 0 20 20" fill="none" xmlns="http://www.w3.org/2000/svg">
<mask id="mask0" mask-type="alpha" maskUnits="userSpaceOnUse" x="1" y="1" width="18" height="18">
<path fill-rule="evenodd" clip-rule="evenodd" d="M1.66699 1.66683H18.3359V18.3343H1.66699V1.66683Z" fill="white"/>
</mask>
<g mask="url(#mask0)">
<path fill-rule="evenodd" clip-rule="evenodd" d="M9.12093 16.7296C9.61259 17.2096 10.4043 17.2038 10.8926 16.7129L11.4943 16.1129C11.9609 15.6471 12.6059 15.3813 13.2634 15.3813H14.1218C14.8168 15.3813 15.3818 14.8163 15.3818 14.1221V13.2646C15.3818 12.5971 15.6401 11.9696 16.1118 11.4971L16.7118 10.8963C16.9559 10.6513 17.0868 10.3338 17.0859 9.99709C17.0851 9.66126 16.9526 9.34542 16.7134 9.10709L16.1126 8.50542C15.6401 8.02959 15.3818 7.40292 15.3818 6.73542V5.87959C15.3818 5.18459 14.8168 4.61959 14.1218 4.61959H13.2651C12.5976 4.61959 11.9701 4.36042 11.4976 3.89126L10.8959 3.28876C10.3951 2.79293 9.59593 2.79543 9.10676 3.28793L8.50759 3.88876C8.02926 4.36126 7.40176 4.61959 6.73676 4.61959H5.87926C5.18509 4.62042 4.62009 5.18542 4.62009 5.87959V6.73376C4.62009 7.40126 4.36093 8.02876 3.89093 8.50209L3.29926 9.09459C3.29343 9.10126 3.28759 9.10626 3.28176 9.11209C2.79259 9.60459 2.79509 10.4038 3.28759 10.8929L3.88926 11.4946C4.36093 11.9679 4.62009 12.5954 4.62009 13.2629V14.1221C4.62009 14.8163 5.18426 15.3813 5.87926 15.3813H6.73509C7.40343 15.3821 8.03093 15.6413 8.50343 16.1121L9.10426 16.7113C9.10926 16.7171 9.11509 16.7229 9.12093 16.7296ZM9.99926 18.3346C9.36009 18.3346 8.72093 18.0929 8.23176 17.6079C8.22509 17.6013 8.21843 17.5946 8.21176 17.5871L7.62009 16.9963C7.38426 16.7621 7.06926 16.6321 6.73426 16.6313H5.87926C4.49509 16.6313 3.37009 15.5054 3.37009 14.1221V13.2629C3.37009 12.9279 3.23926 12.6138 3.00426 12.3771L2.40509 11.7788C1.43176 10.8104 1.42009 9.23376 2.37593 8.25042C2.38343 8.24292 2.39093 8.23542 2.39843 8.22792L3.00509 7.61959C3.23926 7.38376 3.37009 7.06792 3.37009 6.73376V5.87959C3.37009 4.49626 4.49509 3.37043 5.87843 3.36959H6.73676C7.07093 3.36959 7.38593 3.23876 7.62509 3.00293L8.22093 2.40543C9.19509 1.42459 10.7876 1.41959 11.7701 2.39626L12.3793 3.00543C12.6151 3.23959 12.9301 3.36959 13.2651 3.36959H14.1218C15.5059 3.36959 16.6318 4.49542 16.6318 5.87959V6.73542C16.6318 7.06959 16.7618 7.38542 16.9976 7.62292L17.5959 8.22209C18.0701 8.69292 18.3334 9.32209 18.3359 9.99292C18.3384 10.6638 18.0793 11.2946 17.6068 11.7704L16.9959 12.3796C16.7618 12.6154 16.6318 12.9296 16.6318 13.2646V14.1221C16.6318 15.5054 15.5059 16.6313 14.1226 16.6313H13.2634C12.9334 16.6313 12.6109 16.7646 12.3768 16.9971L11.7784 17.5954C11.2893 18.0879 10.6443 18.3346 9.99926 18.3346Z" fill="white"/>
</g>
<path fill-rule="evenodd" clip-rule="evenodd" d="M7.85868 12.7679C7.69868 12.7679 7.53868 12.7071 7.41701 12.5846C7.17285 12.3404 7.17285 11.9454 7.41701 11.7013L11.7003 7.41709C11.9445 7.17292 12.3403 7.17292 12.5845 7.41709C12.8287 7.66125 12.8287 8.05709 12.5845 8.30125L8.30034 12.5846C8.17868 12.7071 8.01868 12.7679 7.85868 12.7679Z" fill="white"/>
<path fill-rule="evenodd" clip-rule="evenodd" d="M12.0865 12.916C11.6257 12.916 11.249 12.5435 11.249 12.0827C11.249 11.6218 11.6182 11.2493 12.079 11.2493H12.0865C12.5474 11.2493 12.9199 11.6218 12.9199 12.0827C12.9199 12.5435 12.5474 12.916 12.0865 12.916Z" fill="white"/>
<path fill-rule="evenodd" clip-rule="evenodd" d="M7.91953 8.74934C7.4587 8.74934 7.08203 8.37684 7.08203 7.916C7.08203 7.45517 7.4512 7.08267 7.91203 7.08267H7.91953C8.38036 7.08267 8.75286 7.45517 8.75286 7.916C8.75286 8.37684 8.38036 8.74934 7.91953 8.74934Z" fill="white"/>
</svg>
