<svg width="20" height="20" viewBox="0 0 20 20" fill="none" xmlns="http://www.w3.org/2000/svg">
<path fill-rule="evenodd" clip-rule="evenodd" d="M13.0963 14.1448H7.07959C6.73459 14.1448 6.45459 13.8648 6.45459 13.5198C6.45459 13.1748 6.73459 12.8948 7.07959 12.8948H13.0963C13.4413 12.8948 13.7213 13.1748 13.7213 13.5198C13.7213 13.8648 13.4413 14.1448 13.0963 14.1448Z" fill="white"/>
<path fill-rule="evenodd" clip-rule="evenodd" d="M13.0963 10.656H7.07959C6.73459 10.656 6.45459 10.376 6.45459 10.031C6.45459 9.68601 6.73459 9.40601 7.07959 9.40601H13.0963C13.4413 9.40601 13.7213 9.68601 13.7213 10.031C13.7213 10.376 13.4413 10.656 13.0963 10.656Z" fill="white"/>
<path fill-rule="evenodd" clip-rule="evenodd" d="M9.37542 7.17534H7.07959C6.73459 7.17534 6.45459 6.89534 6.45459 6.55034C6.45459 6.20534 6.73459 5.92534 7.07959 5.92534H9.37542C9.72042 5.92534 10.0004 6.20534 10.0004 6.55034C10.0004 6.89534 9.72042 7.17534 9.37542 7.17534Z" fill="white"/>
<mask id="mask0" mask-type="alpha" maskUnits="userSpaceOnUse" x="2" y="1" width="16" height="18">
<path fill-rule="evenodd" clip-rule="evenodd" d="M2.5 1.66684H17.6372V18.2583H2.5V1.66684Z" fill="white"/>
</mask>
<g mask="url(#mask0)">
<path fill-rule="evenodd" clip-rule="evenodd" d="M13.257 2.91667L6.84951 2.92C4.90951 2.93167 3.74951 4.13167 3.74951 6.13084V13.7942C3.74951 15.8067 4.92035 17.0083 6.87951 17.0083L13.287 17.0058C15.227 16.9942 16.387 15.7925 16.387 13.7942V6.13084C16.387 4.11834 15.217 2.91667 13.257 2.91667ZM6.88034 18.2583C4.26034 18.2583 2.49951 16.4642 2.49951 13.7942V6.13084C2.49951 3.43667 4.20535 1.68584 6.84534 1.67001L13.2562 1.66667H13.257C15.877 1.66667 17.637 3.46084 17.637 6.13084V13.7942C17.637 16.4875 15.9312 18.2392 13.2912 18.2558L6.88034 18.2583Z" fill="white"/>
</g>
</svg>
