<svg width="20" height="20" viewBox="0 0 20 20" fill="none" xmlns="http://www.w3.org/2000/svg">
<g id="Iconly/Light-Outline/Password">
<g id="Password">
<g id="Group 3">
<mask id="mask0" mask-type="alpha" maskUnits="userSpaceOnUse" x="1" y="1" width="18" height="18">
<path id="Clip 2" fill-rule="evenodd" clip-rule="evenodd" d="M1.6665 1.66667H18.3331V18.3333H1.6665V1.66667Z" fill="white"/>
</mask>
<g mask="url(#mask0)">
<path id="Fill 1" fill-rule="evenodd" clip-rule="evenodd" d="M6.3865 2.91667C4.279 2.91667 2.9165 4.36084 2.9165 6.59667V13.4033C2.9165 15.6392 4.279 17.0833 6.3865 17.0833H13.6098C15.7198 17.0833 17.0832 15.6392 17.0832 13.4033V6.59667C17.0832 4.36084 15.7198 2.91667 13.6115 2.91667H6.3865ZM13.6098 18.3333H6.3865C3.56317 18.3333 1.6665 16.3517 1.6665 13.4033V6.59667C1.6665 3.64834 3.56317 1.66667 6.3865 1.66667H13.6115C16.4357 1.66667 18.3332 3.64834 18.3332 6.59667V13.4033C18.3332 16.3517 16.4357 18.3333 13.6098 18.3333Z" fill="white"/>
</g>
</g>
<path id="Fill 4" fill-rule="evenodd" clip-rule="evenodd" d="M7.36531 9.082C6.85698 9.082 6.44531 9.49367 6.44531 10.0003C6.44531 10.507 6.85698 10.9187 7.36365 10.9187C7.86948 10.9187 8.28198 10.507 8.28198 10.0003C8.28198 9.4945 7.87031 9.08283 7.36531 9.082ZM7.36365 12.1687C6.16781 12.1687 5.19531 11.1953 5.19531 10.0003C5.19531 8.8045 6.16781 7.832 7.36365 7.832C8.56115 7.83283 9.53198 8.80533 9.53198 10.0003C9.53198 11.1953 8.55948 12.1687 7.36365 12.1687Z" fill="white"/>
<path id="Fill 6" fill-rule="evenodd" clip-rule="evenodd" d="M14.1747 12.1688C13.8297 12.1688 13.5497 11.8888 13.5497 11.5438V10.6246H8.90967C8.56467 10.6246 8.28467 10.3454 8.28467 9.99959C8.28467 9.65459 8.56467 9.37459 8.90967 9.37459H14.1747C14.5197 9.37459 14.7997 9.65459 14.7997 9.99959V11.5438C14.7997 11.8888 14.5197 12.1688 14.1747 12.1688Z" fill="white"/>
<path id="Fill 8" fill-rule="evenodd" clip-rule="evenodd" d="M11.8179 12.1688C11.4729 12.1688 11.1929 11.8888 11.1929 11.5438V9.99959C11.1929 9.65459 11.4729 9.37459 11.8179 9.37459C12.1629 9.37459 12.4429 9.65459 12.4429 9.99959V11.5438C12.4429 11.8888 12.1629 12.1688 11.8179 12.1688Z" fill="white"/>
</g>
</g>
</svg>
