<svg width="24" height="17" viewBox="0 0 24 17" fill="none" xmlns="http://www.w3.org/2000/svg">
<path d="M24 3.89062V2.625C24 1.17525 22.8248 0 21.375 0H2.625C1.17525 0 0 1.17525 0 2.625V3.89062C0 4.02005 0.104953 4.125 0.234375 4.125H23.7656C23.895 4.125 24 4.02005 24 3.89062Z" fill="#0091FF"/>
<path d="M0 5.85938V13.875C0 15.3247 1.17525 16.5 2.625 16.5H21.375C22.8248 16.5 24 15.3247 24 13.875V5.85938C24 5.72995 23.895 5.625 23.7656 5.625H0.234375C0.104953 5.625 0 5.72995 0 5.85938ZM6 12C6 12.4142 5.66419 12.75 5.25 12.75H4.5C4.08581 12.75 3.75 12.4142 3.75 12V11.25C3.75 10.8358 4.08581 10.5 4.5 10.5H5.25C5.66419 10.5 6 10.8358 6 11.25V12Z" fill="#0091FF"/>
</svg>
