<svg width="17" height="10" viewBox="0 0 17 10" fill="none" xmlns="http://www.w3.org/2000/svg">
<path d="M16.0615 2.60428C16.2599 2.40586 16.3682 2.15332 16.3682 1.85569C16.3682 1.26043 15.8992 0.782412 15.3039 0.782412C15.0063 0.782412 14.7357 0.90868 14.5283 1.11612L8.35915 7.42954L2.20807 1.11612C2.00063 0.908681 1.72104 0.782412 1.43243 0.782412C0.83716 0.782413 0.368164 1.26043 0.368164 1.85569C0.368164 2.15333 0.476394 2.40586 0.674815 2.60428L7.52938 9.62119C7.76388 9.87373 8.05249 9.99098 8.36816 10C8.68384 10 8.95441 9.87373 9.19793 9.62119L16.0615 2.60428Z" fill="#A6ABAF"/>
</svg>
