<svg width="13" height="24" viewBox="0 0 13 24" fill="none" xmlns="http://www.w3.org/2000/svg">
<path d="M0.8125 13.937H3.3305V23.249C3.3305 23.663 3.6655 23.999 4.0805 23.999L8.0875 24C8.5025 24 8.8375 23.663 8.8375 23.25V13.938H11.2245C11.6025 13.938 11.9215 13.656 11.9685 13.281L12.4665 9.28099C12.5225 8.83499 12.1735 8.43799 11.7225 8.43799H8.8375C8.9505 5.96699 8.4025 5.23599 10.0095 5.23599C11.0975 5.10599 12.8135 5.65699 12.8135 4.48599V0.908992C12.8135 0.533992 12.5365 0.216992 12.1655 0.165992C11.8515 0.122992 10.6105 -7.62939e-06 9.0715 -7.62939e-06C2.0615 -7.62939e-06 3.5045 7.77199 3.3315 8.43699H0.8125C0.3985 8.43699 0.0625 8.77299 0.0625 9.18699V13.187C0.0625 13.601 0.3985 13.937 0.8125 13.937ZM1.5625 9.93799H4.0805C4.4945 9.93799 4.8305 9.60199 4.8305 9.18799V6.03699C4.8305 3.15399 6.3755 1.50099 9.0705 1.50099C9.9485 1.50099 10.7565 1.54399 11.3125 1.58799V3.73699C10.9105 3.94199 7.3365 2.85299 7.3365 6.43399V9.18899C7.3365 9.60299 7.6725 9.93899 8.0865 9.93899H10.8725L10.5605 12.439H8.0865C7.6725 12.439 7.3365 12.775 7.3365 13.189V22.5H4.8315V13.188C4.8315 12.774 4.4955 12.438 4.0815 12.438H1.5625V9.93799Z" fill="white"/>
</svg>
