<svg width="24" height="24" viewBox="0 0 24 24" fill="none" xmlns="http://www.w3.org/2000/svg">
<path d="M4.75 24H19.25C21.869 24 24 21.869 24 19.25V4.75C24 2.131 21.869 0 19.25 0H4.75C2.131 0 0 2.131 0 4.75V19.25C0 21.869 2.131 24 4.75 24ZM1.5 4.75C1.5 2.958 2.958 1.5 4.75 1.5H19.25C21.042 1.5 22.5 2.958 22.5 4.75V19.25C22.5 21.042 21.042 22.5 19.25 22.5H4.75C2.958 22.5 1.5 21.042 1.5 19.25V4.75Z" fill="white"/>
<path d="M12.0001 18.13C15.3801 18.13 18.1301 15.38 18.1301 12C18.1301 8.62001 15.3801 5.87001 12.0001 5.87001C8.62012 5.87001 5.87012 8.62001 5.87012 12C5.87012 15.38 8.62012 18.13 12.0001 18.13ZM12.0001 7.37001C14.5531 7.37001 16.6301 9.44701 16.6301 12C16.6301 14.553 14.5531 16.63 12.0001 16.63C9.44712 16.63 7.37012 14.553 7.37012 12C7.37012 9.44701 9.44712 7.37001 12.0001 7.37001Z" fill="white"/>
<path d="M18.3579 7.36201C19.3439 7.36201 20.0869 6.62201 20.0869 5.64101C20.0869 4.61801 19.3049 3.92001 18.3589 3.92001C17.3729 3.92001 16.6299 4.66001 16.6299 5.64101C16.6299 6.66201 17.4079 7.36201 18.3579 7.36201ZM18.5349 5.47601C18.8509 5.75501 18.1299 6.09401 18.1299 5.64201C18.1299 5.37201 18.4969 5.44201 18.5349 5.47601Z" fill="white"/>
</svg>
