<svg width="16" height="12" viewBox="0 0 16 12" fill="none" xmlns="http://www.w3.org/2000/svg">
<path d="M0.312314 10.0625H0.312595H1.90401C2.05145 10.8615 2.75279 11.4688 3.59376 11.4688C4.43474 11.4688 5.13608 10.8615 5.28352 10.0625H11.654C11.8015 10.8615 12.5028 11.4688 13.3438 11.4688C14.2915 11.4688 15.0625 10.6977 15.0625 9.75001C15.0625 9.29022 14.8774 8.85519 14.561 8.53706L15.8587 7.68737C16.0248 7.57862 16.0486 7.34437 15.908 7.2045C15.2699 6.56909 14.3902 6.1924 13.4766 6.15896C13.4346 4.90183 13.1345 4.3538 12.6964 3.55545C12.6087 3.39573 12.5141 3.22301 12.4145 3.03126H12.8751C13.0476 3.03126 13.1876 2.89135 13.1876 2.71876V0.843751C13.1876 0.671157 13.0476 0.53125 12.8751 0.53125H11.9375C11.2483 0.53125 10.6875 1.092 10.6875 1.78126C10.6875 1.85551 10.6949 1.92894 10.7077 2.0011L9.04925 2.41557C8.88185 2.45741 8.78 2.62707 8.82188 2.79451C8.86378 2.96217 9.0335 3.0637 9.20082 3.02192L10.5012 2.69695C10.5046 2.87817 10.5289 3.08357 10.5592 3.30554C10.5806 3.4622 10.7146 3.57582 10.8684 3.57582C11.0586 3.57582 11.204 3.40832 11.1785 3.22104C11.1484 3.00051 11.134 2.84473 11.1288 2.73398C11.2924 2.87313 11.49 2.96785 11.7029 3.00838C11.8644 3.33836 12.0142 3.61142 12.1485 3.85611C12.5573 4.60105 12.8159 5.0733 12.8523 6.19009C12.3351 6.26146 11.843 6.44515 11.4079 6.72403C11.442 6.52234 11.4627 6.30443 11.4697 6.06865C11.4749 5.89615 11.3392 5.75211 11.1667 5.74693C10.9954 5.74255 10.8502 5.87743 10.845 6.04993C10.8256 6.69865 10.6962 7.17115 10.4496 7.49431C10.1736 7.85559 9.74035 8.03119 9.12507 8.03119H8.46881C7.86572 8.03119 7.37506 7.54053 7.37506 6.93743C7.37506 6.44105 7.95166 5.94155 8.17438 5.79055C8.25797 5.73424 8.31256 5.63724 8.31256 5.53083V4.59367C8.31256 3.90442 7.75181 3.34367 7.06256 3.34367H3.12501C2.43576 3.34367 1.87501 3.90442 1.87501 4.59367V5.34671C0.0220939 6.4574 0 9.61229 0 9.74997C0 9.75069 9.37504e-05 9.75135 9.37504e-05 9.75207C0.00140626 9.92507 0.142813 10.0625 0.312314 10.0625ZM11.9375 2.40619L11.9316 2.40632C11.9274 2.40604 11.9231 2.40582 11.9189 2.4057C11.5793 2.3961 11.3125 2.11598 11.3125 1.78119C11.3125 1.43657 11.5929 1.15619 11.9375 1.15619H12.5625V2.40619H11.9375ZM13.3438 10.8437C12.7407 10.8437 12.25 10.3531 12.25 9.74997C12.25 9.14688 12.7407 8.65622 13.3438 8.65622C13.9456 8.65622 14.4376 9.14344 14.4376 9.74997C14.4376 10.3531 13.9469 10.8437 13.3438 10.8437ZM11.0091 7.91847C11.5402 7.24325 12.3336 6.83028 13.1863 6.78543C13.8741 6.74818 14.5923 6.95328 15.1712 7.3905L13.996 8.15997C13.79 8.07569 13.568 8.03119 13.3438 8.03119C12.5029 8.03119 11.8015 8.63847 11.6541 9.43744H10.3918C10.4493 8.88344 10.6594 8.36331 11.0091 7.91847ZM3.59376 10.8437C3.09926 10.8437 2.68054 10.5137 2.54573 10.0622H4.64177C4.50699 10.5138 4.08827 10.8437 3.59376 10.8437ZM0.962723 9.43747L1.55307 8.6996C2.05182 8.07625 2.7956 7.71872 3.59376 7.71872C4.60755 7.71872 5.45018 8.46528 5.60093 9.43747H0.962723ZM5.40627 3.9687H7.06253C7.40715 3.9687 7.68753 4.24908 7.68753 4.5937V5.21871H5.40627V3.9687ZM2.50001 4.5937C2.50001 4.24908 2.78039 3.9687 3.12501 3.9687H4.78127V5.21871H2.50001V4.5937ZM2.26423 5.8434H7.20509C6.96634 6.13199 6.75003 6.51062 6.75003 6.93746C6.75003 7.88519 7.52106 8.65622 8.46878 8.65622H9.12504C9.4311 8.65622 9.70879 8.61869 9.95738 8.54425C9.85513 8.8306 9.78976 9.12985 9.76351 9.43747H6.23102C6.07577 8.11962 4.95264 7.09371 3.59376 7.09371C2.60473 7.09371 1.68304 7.53672 1.06507 8.30912L0.715628 8.74588C0.863003 7.78359 1.24979 6.39837 2.26423 5.8434Z" fill="white"/>
</svg>
