<svg width="16" height="10" viewBox="0 0 16 10" fill="none" xmlns="http://www.w3.org/2000/svg">
<path d="M13.3437 4.5453C13.2144 4.5453 13.0874 4.55506 12.9629 4.57302L12.8002 3.96559C12.9771 3.93596 13.1586 3.92031 13.3437 3.92031C13.6013 3.92031 13.8583 3.95043 14.1075 4.0098C14.228 4.03852 14.3541 3.99337 14.4289 3.89468C15.1547 2.93802 15.1963 2.36759 14.5938 1.63409C13.8162 0.687524 13.1008 0.201149 12.4066 0.147211C11.8866 0.10668 11.3857 0.308961 10.8739 0.765117C10.8066 0.825086 10.7685 0.911243 10.7693 1.00143C10.7702 1.09162 10.81 1.17699 10.8785 1.23568L11.3887 1.67305C11.3679 1.76365 11.3499 1.84921 11.3333 1.92846C11.2907 2.13209 11.2569 2.29237 11.203 2.42527C11.1294 2.3824 11.0569 2.33999 10.9857 2.29827C9.93697 1.68418 9.10881 1.19909 8.26562 1.43243C7.70547 1.58743 7.21394 2.04802 6.72925 2.87515L4.35919 2.19693L4.21284 1.74424C4.06222 1.27824 3.74056 1.02355 3.20072 0.942992L0.52 0.488961C0.407531 0.469836 0.293625 0.513649 0.222813 0.603086C0.152 0.692492 0.135562 0.813399 0.179875 0.918524C0.847531 2.50112 1.10044 2.91918 2.05347 3.39271L4.35381 4.53559C4.94741 4.83049 5.16 5.05593 5.34287 5.58443L5.79428 6.88905H5.2935C5.13825 5.57121 4.01512 4.5453 2.65625 4.5453C1.19159 4.5453 0 5.7369 0 7.20155C0 8.66621 1.19159 9.85781 2.65625 9.85781C4.01516 9.85781 5.13828 8.8319 5.2935 7.51405H6.01053L6.31619 8.39749C6.35975 8.52337 6.47831 8.60781 6.6115 8.60781H9.91962C10.0193 8.60781 10.1131 8.56021 10.172 8.47965C10.2308 8.39909 10.2477 8.29531 10.2173 8.2003C10.1145 7.87818 10.0624 7.54218 10.0624 7.20155C10.0624 5.79565 10.9513 4.59362 12.1964 4.12743L12.3593 4.73521C11.3807 5.12721 10.6874 6.08465 10.6874 7.20159C10.6874 8.66624 11.879 9.85784 13.3437 9.85784C14.8083 9.85784 15.9999 8.66624 15.9999 7.20159C15.9999 5.73693 14.8084 4.5453 13.3437 4.5453ZM2.65625 9.23281C1.53622 9.23281 0.625 8.32159 0.625 7.20155C0.625 6.08152 1.53622 5.17031 2.65625 5.17031C3.67003 5.17031 4.51266 5.91687 4.66344 6.88905H4.02709C3.88456 6.26362 3.32425 5.79531 2.65625 5.79531C1.88084 5.79531 1.25 6.42615 1.25 7.20155C1.25 7.97696 1.88084 8.60781 2.65625 8.60781C3.32425 8.60781 3.88453 8.13949 4.02709 7.51405H4.66344C4.51266 8.48624 3.67003 9.23281 2.65625 9.23281ZM2.65625 7.51405H3.37209C3.25128 7.78968 2.97597 7.9828 2.65625 7.9828C2.22547 7.9828 1.875 7.63234 1.875 7.20155C1.875 6.77077 2.22547 6.42031 2.65625 6.42031C2.97597 6.42031 3.25128 6.61343 3.37209 6.88905H2.65625C2.48366 6.88905 2.34375 7.02899 2.34375 7.20155C2.34375 7.37412 2.48366 7.51405 2.65625 7.51405ZM8.43231 2.0348C9.02072 1.87202 9.7485 2.29812 10.6698 2.83759C10.6944 2.85196 10.7193 2.86655 10.7442 2.88112C10.6914 2.9069 10.6332 2.93227 10.5682 2.95765L9.06644 3.54396L7.35172 3.05327C7.71497 2.46943 8.07022 2.13499 8.43231 2.0348ZM10.0985 5.02968H9.07787C8.90531 5.02968 8.76537 5.16962 8.76537 5.34218C8.76537 5.51474 8.90531 5.65468 9.07787 5.65468H9.75712C9.67041 5.85496 9.60006 6.06384 9.54762 6.27971H8.37484C8.20228 6.27971 8.06234 6.41965 8.06234 6.59221C8.06234 6.76477 8.20228 6.90471 8.37484 6.90471H9.44866C9.44125 7.00271 9.43744 7.10168 9.43744 7.20155C9.43744 7.46524 9.46372 7.72665 9.51581 7.9828H6.83406L5.9335 5.38009C5.66744 4.61109 5.27075 4.29327 4.63187 3.97584L2.33156 2.83296C1.68603 2.51224 1.45803 2.27193 0.982312 1.20115L3.0995 1.55977C3.10169 1.56015 3.10384 1.56049 3.10603 1.5608C3.45091 1.61174 3.55206 1.73212 3.61816 1.93649L3.81575 2.54768C3.84778 2.64674 3.92703 2.72334 4.02712 2.75199L8.99588 4.17387C9.06163 4.19271 9.13181 4.1894 9.1955 4.16452L10.7955 3.53987C11.7088 3.18334 11.8183 2.66127 11.945 2.05674C11.9727 1.92468 12.0014 1.78812 12.0402 1.64062C12.0708 1.52477 12.0324 1.40165 11.9415 1.32365L11.5742 1.0088C11.8459 0.826805 12.1005 0.750555 12.3582 0.770336C12.8666 0.809867 13.4563 1.23396 14.1108 2.0308C14.2658 2.21952 14.3896 2.37059 14.388 2.58771L13.9626 2.41262C13.8028 2.34687 13.6203 2.42309 13.5547 2.58262C13.4889 2.74221 13.5651 2.92487 13.7247 2.99055L14.1695 3.17365C14.1336 3.23168 14.0931 3.29306 14.0468 3.35871C13.8154 3.31659 13.5798 3.29534 13.3437 3.29534C11.993 3.29531 10.8003 3.98452 10.0985 5.02968ZM13.3437 9.23281C12.2237 9.23281 11.3125 8.32159 11.3125 7.20155C11.3125 6.37371 11.8106 5.6604 12.5226 5.34434L12.6871 5.95852C12.2417 6.19477 11.9375 6.66318 11.9375 7.20155C11.9375 7.97696 12.5683 8.60781 13.3437 8.60781C14.1191 8.60781 14.75 7.97696 14.75 7.20155C14.75 6.42615 14.1191 5.79531 13.3437 5.79531C13.326 5.79531 13.3084 5.79599 13.2908 5.79665L13.1262 5.18212C13.1977 5.17446 13.2702 5.17031 13.3437 5.17031C14.4638 5.17031 15.375 6.08152 15.375 7.20155C15.375 8.32159 14.4637 9.23281 13.3437 9.23281ZM13.0419 7.28243C13.0793 7.42205 13.2055 7.51415 13.3435 7.51415C13.3703 7.51415 13.3975 7.51068 13.4246 7.5034C13.5913 7.45871 13.6902 7.28737 13.6456 7.12068L13.4602 6.42902C13.836 6.48546 14.125 6.81037 14.125 7.20155C14.125 7.63234 13.7745 7.9828 13.3437 7.9828C12.9129 7.9828 12.5625 7.63234 12.5625 7.20155C12.5625 6.95484 12.6775 6.73462 12.8567 6.59134L13.0419 7.28243Z" fill="white"/>
</svg>
