<svg width="17" height="10" viewBox="0 0 17 10" fill="none" xmlns="http://www.w3.org/2000/svg">
<path d="M0.674815 7.43569C0.476393 7.63519 0.368164 7.88909 0.368164 8.18833C0.368164 8.78681 0.83716 9.26741 1.43243 9.26741C1.73006 9.26741 2.00063 9.14046 2.20807 8.9319L8.37718 2.58436L14.5283 8.9319C14.7357 9.14046 15.0153 9.26741 15.3039 9.26741C15.8992 9.26741 16.3682 8.78681 16.3682 8.18833C16.3682 7.88909 16.2599 7.63519 16.0615 7.43569L9.20695 0.380852C8.97245 0.126951 8.68383 0.00906758 8.36816 -3.51581e-07C8.05249 -3.65454e-07 7.78192 0.12695 7.5384 0.380852L0.674815 7.43569Z" fill="#A6ABAF"/>
</svg>
