<svg width="21" height="20" viewBox="0 0 21 20" fill="none" xmlns="http://www.w3.org/2000/svg">
<path fill-rule="evenodd" clip-rule="evenodd" d="M19.8884 12.8956H15.8404C13.9434 12.8956 12.3994 11.3526 12.3984 9.4566C12.3984 7.5586 13.9424 6.0146 15.8404 6.0136H19.8884C20.3024 6.0136 20.6384 6.3496 20.6384 6.7636C20.6384 7.1776 20.3024 7.5136 19.8884 7.5136H15.8404C14.7694 7.5146 13.8984 8.3856 13.8984 9.4556C13.8984 10.5246 14.7704 11.3956 15.8404 11.3956H19.8884C20.3024 11.3956 20.6384 11.7316 20.6384 12.1456C20.6384 12.5596 20.3024 12.8956 19.8884 12.8956Z" fill="#0091FF"/>
<path fill-rule="evenodd" clip-rule="evenodd" d="M16.2983 10.1436H15.9863C15.5723 10.1436 15.2363 9.80759 15.2363 9.39359C15.2363 8.97959 15.5723 8.64359 15.9863 8.64359H16.2983C16.7123 8.64359 17.0483 8.97959 17.0483 9.39359C17.0483 9.80759 16.7123 10.1436 16.2983 10.1436Z" fill="#0091FF"/>
<mask id="mask0" mask-type="alpha" maskUnits="userSpaceOnUse" x="0" y="0" width="21" height="20">
<path fill-rule="evenodd" clip-rule="evenodd" d="M0 0H20.6386V19.1729H0V0Z" fill="white"/>
</mask>
<g mask="url(#mask0)">
<path fill-rule="evenodd" clip-rule="evenodd" d="M5.998 1.5C3.518 1.5 1.5 3.518 1.5 5.998V13.175C1.5 15.655 3.518 17.673 5.998 17.673H14.642C17.122 17.673 19.139 15.655 19.139 13.175V5.998C19.139 3.518 17.122 1.5 14.642 1.5H5.998ZM14.642 19.173H5.998C2.691 19.173 0 16.482 0 13.175V5.998C0 2.69 2.691 0 5.998 0H14.642C17.949 0 20.639 2.69 20.639 5.998V13.175C20.639 16.482 17.949 19.173 14.642 19.173Z" fill="#0091FF"/>
</g>
<path fill-rule="evenodd" clip-rule="evenodd" d="M10.6842 6.0381H5.28516C4.87116 6.0381 4.53516 5.7021 4.53516 5.2881C4.53516 4.8741 4.87116 4.5381 5.28516 4.5381H10.6842C11.0982 4.5381 11.4342 4.8741 11.4342 5.2881C11.4342 5.7021 11.0982 6.0381 10.6842 6.0381Z" fill="#0091FF"/>
</svg>
