<svg width="12" height="14" viewBox="0 0 12 14" fill="none" xmlns="http://www.w3.org/2000/svg">
<path fill-rule="evenodd" clip-rule="evenodd" d="M6.16764 4.66667C5.52431 4.66667 5.00098 5.19001 5.00098 5.83401C5.00098 6.47734 5.52431 7.00001 6.16764 7.00001C6.81098 7.00001 7.33431 6.47734 7.33431 5.83401C7.33431 5.19001 6.81098 4.66667 6.16764 4.66667ZM6.16764 8.00001C4.97298 8.00001 4.00098 7.02867 4.00098 5.83401C4.00098 4.63867 4.97298 3.66667 6.16764 3.66667C7.36231 3.66667 8.33431 4.63867 8.33431 5.83401C8.33431 7.02867 7.36231 8.00001 6.16764 8.00001Z" fill="#0091FF"/>
<mask id="mask0" mask-type="alpha" maskUnits="userSpaceOnUse" x="0" y="0" width="12" height="14">
<path fill-rule="evenodd" clip-rule="evenodd" d="M0.666992 0.333336H11.6667V13.3333H0.666992V0.333336Z" fill="white"/>
</mask>
<g mask="url(#mask0)">
<path fill-rule="evenodd" clip-rule="evenodd" d="M6.16699 1.33334C3.68566 1.33334 1.66699 3.37134 1.66699 5.87534C1.66699 9.06134 5.41632 12.1653 6.16699 12.3307C6.91766 12.1647 10.667 9.06067 10.667 5.87534C10.667 3.37134 8.64832 1.33334 6.16699 1.33334ZM6.16699 13.3333C4.97099 13.3333 0.666992 9.632 0.666992 5.87534C0.666992 2.81934 3.13433 0.333336 6.16699 0.333336C9.19966 0.333336 11.667 2.81934 11.667 5.87534C11.667 9.632 7.36299 13.3333 6.16699 13.3333Z" fill="#0091FF"/>
</g>
</svg>
