<svg width="14" height="13" viewBox="0 0 14 13" fill="none" xmlns="http://www.w3.org/2000/svg">
<path fill-rule="evenodd" clip-rule="evenodd" d="M6.20298 7.87853L8.64098 11.8339C8.74765 12.0072 8.91432 12.0052 8.98165 11.9959C9.04898 11.9865 9.21098 11.9452 9.26965 11.7485L12.3183 1.45187C12.3717 1.26987 12.2736 1.14587 12.2296 1.10187C12.187 1.05787 12.065 0.963868 11.8883 1.01387L1.58432 4.0312C1.38898 4.08853 1.34632 4.25253 1.33698 4.31987C1.32765 4.38853 1.32498 4.55853 1.49765 4.6672L5.49832 7.1692L9.03298 3.5972C9.22698 3.4012 9.54365 3.3992 9.74032 3.5932C9.93698 3.7872 9.93832 4.10453 9.74432 4.30053L6.20298 7.87853ZM8.92964 12.9999C8.46564 12.9999 8.0403 12.7639 7.78964 12.3585L5.20497 8.16454L0.967638 5.51454C0.510971 5.22854 0.272304 4.71921 0.346304 4.18388C0.419638 3.64854 0.786971 3.22321 1.30297 3.07188L11.607 0.0545433C12.081 -0.0841233 12.589 0.04721 12.9383 0.39521C13.2876 0.746543 13.4176 1.25988 13.2763 1.73588L10.2276 12.0319C10.075 12.5499 9.6483 12.9159 9.1143 12.9872C9.05164 12.9952 8.99097 12.9999 8.92964 12.9999Z" fill="#0091FF"/>
</svg>
