<svg width="20" height="20" viewBox="0 0 20 20" fill="none" xmlns="http://www.w3.org/2000/svg">
<path fill-rule="evenodd" clip-rule="evenodd" d="M9.43283 18.3333H5.36116C3.32449 18.3333 1.66699 16.6758 1.66699 14.6375V5.36332C1.66699 3.32499 3.32449 1.66666 5.36116 1.66666H9.42366C11.462 1.66666 13.1203 3.32499 13.1203 5.36332V6.13999C13.1203 6.48499 12.8403 6.76499 12.4953 6.76499C12.1503 6.76499 11.8703 6.48499 11.8703 6.13999V5.36332C11.8703 4.01332 10.7728 2.91666 9.42366 2.91666H5.36116C4.01366 2.91666 2.91699 4.01332 2.91699 5.36332V14.6375C2.91699 15.9867 4.01366 17.0833 5.36116 17.0833H9.43283C10.7762 17.0833 11.8703 15.99 11.8703 14.6467V13.8608C11.8703 13.5158 12.1503 13.2358 12.4953 13.2358C12.8403 13.2358 13.1203 13.5158 13.1203 13.8608V14.6467C13.1203 16.68 11.4653 18.3333 9.43283 18.3333Z" fill="white"/>
<mask id="mask0" style="mask-type:alpha" maskUnits="userSpaceOnUse" x="7" y="9" width="12" height="2">
<path fill-rule="evenodd" clip-rule="evenodd" d="M7.49707 9.375H18.7812V10.625H7.49707V9.375Z" fill="white"/>
</mask>
<g mask="url(#mask0)">
<path fill-rule="evenodd" clip-rule="evenodd" d="M18.1562 10.625H8.12207C7.77707 10.625 7.49707 10.345 7.49707 10C7.49707 9.655 7.77707 9.375 8.12207 9.375H18.1562C18.5012 9.375 18.7812 9.655 18.7812 10C18.7812 10.345 18.5012 10.625 18.1562 10.625Z" fill="white"/>
</g>
<mask id="mask1" style="mask-type:alpha" maskUnits="userSpaceOnUse" x="15" y="6" width="4" height="8">
<path fill-rule="evenodd" clip-rule="evenodd" d="M15.0913 6.94604H18.7808V13.055H15.0913V6.94604Z" fill="white"/>
</mask>
<g mask="url(#mask1)">
<path fill-rule="evenodd" clip-rule="evenodd" d="M15.7161 13.055C15.5561 13.055 15.3953 12.9942 15.2736 12.8708C15.0303 12.6258 15.0311 12.2308 15.2753 11.9875L17.2703 10L15.2753 8.01334C15.0311 7.77 15.0294 7.375 15.2736 7.13C15.5169 6.885 15.9119 6.885 16.1569 7.12834L18.5969 9.5575C18.7153 9.67417 18.7811 9.83417 18.7811 10C18.7811 10.1658 18.7153 10.3258 18.5969 10.4425L16.1569 12.8725C16.0353 12.9942 15.8753 13.055 15.7161 13.055Z" fill="white"/>
</g>
</svg>
